<mxfile host="app.diagrams.net" modified="2023-12-06T08:02:19.177Z" agent="5.0 (Windows)" etag="pOmKZ9x7fqR1pKXw_NyC" version="20.8.23" type="github">
  <diagram name="Page-1" id="GmQjPXee7EjuoK65Q7M-">
    <mxGraphModel dx="2900" dy="1616" grid="0" gridSize="10" guides="1" tooltips="1" connect="1" arrows="1" fold="1" page="0" pageScale="1" pageWidth="850" pageHeight="1100" math="0" shadow="0">
      <root>
        <mxCell id="0" />
        <mxCell id="1" parent="0" />
        <mxCell id="WWABcLWsGfoM6cbj3lzx-3" style="edgeStyle=none;curved=1;rounded=0;orthogonalLoop=1;jettySize=auto;html=1;exitX=0.5;exitY=1;exitDx=0;exitDy=0;fontSize=12;startSize=8;endSize=8;" edge="1" parent="1" source="WWABcLWsGfoM6cbj3lzx-1" target="WWABcLWsGfoM6cbj3lzx-2">
          <mxGeometry relative="1" as="geometry" />
        </mxCell>
        <mxCell id="WWABcLWsGfoM6cbj3lzx-1" value="Mulai" style="rounded=1;whiteSpace=wrap;html=1;fontSize=16;" vertex="1" parent="1">
          <mxGeometry x="-331" y="-13" width="120" height="60" as="geometry" />
        </mxCell>
        <mxCell id="WWABcLWsGfoM6cbj3lzx-11" style="edgeStyle=none;curved=1;rounded=0;orthogonalLoop=1;jettySize=auto;html=1;fontSize=12;startSize=8;endSize=8;" edge="1" parent="1" source="WWABcLWsGfoM6cbj3lzx-2" target="WWABcLWsGfoM6cbj3lzx-4">
          <mxGeometry relative="1" as="geometry" />
        </mxCell>
        <mxCell id="WWABcLWsGfoM6cbj3lzx-2" value="matriks" style="shape=parallelogram;perimeter=parallelogramPerimeter;whiteSpace=wrap;html=1;fixedSize=1;fontSize=16;" vertex="1" parent="1">
          <mxGeometry x="-331" y="108" width="120" height="60" as="geometry" />
        </mxCell>
        <mxCell id="WWABcLWsGfoM6cbj3lzx-12" style="edgeStyle=none;curved=1;rounded=0;orthogonalLoop=1;jettySize=auto;html=1;entryX=0.5;entryY=0;entryDx=0;entryDy=0;fontSize=12;startSize=8;endSize=8;" edge="1" parent="1" source="WWABcLWsGfoM6cbj3lzx-4" target="WWABcLWsGfoM6cbj3lzx-5">
          <mxGeometry relative="1" as="geometry" />
        </mxCell>
        <mxCell id="WWABcLWsGfoM6cbj3lzx-26" style="edgeStyle=none;rounded=0;orthogonalLoop=1;jettySize=auto;html=1;entryX=1;entryY=0.5;entryDx=0;entryDy=0;fontSize=12;startSize=8;endSize=8;" edge="1" parent="1" source="WWABcLWsGfoM6cbj3lzx-4" target="WWABcLWsGfoM6cbj3lzx-8">
          <mxGeometry relative="1" as="geometry">
            <Array as="points">
              <mxPoint x="-50" y="228" />
              <mxPoint x="-50" y="583" />
            </Array>
          </mxGeometry>
        </mxCell>
        <mxCell id="WWABcLWsGfoM6cbj3lzx-4" value="for baris = 1 to tinggi" style="shape=hexagon;perimeter=hexagonPerimeter2;whiteSpace=wrap;html=1;fixedSize=1;fontSize=16;" vertex="1" parent="1">
          <mxGeometry x="-367" y="212" width="192" height="41" as="geometry" />
        </mxCell>
        <mxCell id="WWABcLWsGfoM6cbj3lzx-13" style="edgeStyle=none;curved=1;rounded=0;orthogonalLoop=1;jettySize=auto;html=1;entryX=0.5;entryY=0;entryDx=0;entryDy=0;fontSize=12;startSize=8;endSize=8;" edge="1" parent="1" source="WWABcLWsGfoM6cbj3lzx-5" target="WWABcLWsGfoM6cbj3lzx-6">
          <mxGeometry relative="1" as="geometry" />
        </mxCell>
        <mxCell id="WWABcLWsGfoM6cbj3lzx-28" style="edgeStyle=none;rounded=0;orthogonalLoop=1;jettySize=auto;html=1;entryX=1;entryY=0.5;entryDx=0;entryDy=0;fontSize=12;startSize=8;endSize=8;" edge="1" parent="1" source="WWABcLWsGfoM6cbj3lzx-5" target="WWABcLWsGfoM6cbj3lzx-7">
          <mxGeometry relative="1" as="geometry">
            <Array as="points">
              <mxPoint x="-85" y="302" />
              <mxPoint x="-85" y="484" />
            </Array>
          </mxGeometry>
        </mxCell>
        <mxCell id="WWABcLWsGfoM6cbj3lzx-5" value="for kolom= 1 to lebar" style="shape=hexagon;perimeter=hexagonPerimeter2;whiteSpace=wrap;html=1;fixedSize=1;fontSize=16;" vertex="1" parent="1">
          <mxGeometry x="-367" y="281" width="192" height="41" as="geometry" />
        </mxCell>
        <mxCell id="WWABcLWsGfoM6cbj3lzx-14" style="edgeStyle=none;curved=1;rounded=0;orthogonalLoop=1;jettySize=auto;html=1;entryX=0.5;entryY=0;entryDx=0;entryDy=0;fontSize=12;startSize=8;endSize=8;" edge="1" parent="1" source="WWABcLWsGfoM6cbj3lzx-6" target="WWABcLWsGfoM6cbj3lzx-7">
          <mxGeometry relative="1" as="geometry" />
        </mxCell>
        <mxCell id="WWABcLWsGfoM6cbj3lzx-6" value="&lt;div&gt;r = (matrix[baris][kolom]**2)*&lt;/div&gt;&lt;div&gt;ASM+=rumus&lt;br&gt;&lt;/div&gt;" style="rounded=0;whiteSpace=wrap;html=1;fontSize=16;" vertex="1" parent="1">
          <mxGeometry x="-372" y="358" width="205" height="60" as="geometry" />
        </mxCell>
        <mxCell id="WWABcLWsGfoM6cbj3lzx-15" style="edgeStyle=none;curved=1;rounded=0;orthogonalLoop=1;jettySize=auto;html=1;entryX=0.5;entryY=0;entryDx=0;entryDy=0;fontSize=12;startSize=8;endSize=8;" edge="1" parent="1" source="WWABcLWsGfoM6cbj3lzx-7" target="WWABcLWsGfoM6cbj3lzx-8">
          <mxGeometry relative="1" as="geometry" />
        </mxCell>
        <mxCell id="WWABcLWsGfoM6cbj3lzx-7" value="Next kolom" style="rounded=0;whiteSpace=wrap;html=1;fontSize=16;" vertex="1" parent="1">
          <mxGeometry x="-332" y="454" width="122" height="60" as="geometry" />
        </mxCell>
        <mxCell id="WWABcLWsGfoM6cbj3lzx-16" style="edgeStyle=none;curved=1;rounded=0;orthogonalLoop=1;jettySize=auto;html=1;entryX=0.5;entryY=0;entryDx=0;entryDy=0;fontSize=12;startSize=8;endSize=8;" edge="1" parent="1" source="WWABcLWsGfoM6cbj3lzx-8" target="WWABcLWsGfoM6cbj3lzx-9">
          <mxGeometry relative="1" as="geometry" />
        </mxCell>
        <mxCell id="WWABcLWsGfoM6cbj3lzx-8" value="Next baris" style="rounded=0;whiteSpace=wrap;html=1;fontSize=16;" vertex="1" parent="1">
          <mxGeometry x="-331" y="553" width="122" height="60" as="geometry" />
        </mxCell>
        <mxCell id="WWABcLWsGfoM6cbj3lzx-17" style="edgeStyle=none;curved=1;rounded=0;orthogonalLoop=1;jettySize=auto;html=1;entryX=0.5;entryY=0;entryDx=0;entryDy=0;fontSize=12;startSize=8;endSize=8;" edge="1" parent="1" source="WWABcLWsGfoM6cbj3lzx-9" target="WWABcLWsGfoM6cbj3lzx-10">
          <mxGeometry relative="1" as="geometry" />
        </mxCell>
        <mxCell id="WWABcLWsGfoM6cbj3lzx-9" value="Nilai Contrast" style="shape=parallelogram;perimeter=parallelogramPerimeter;whiteSpace=wrap;html=1;fixedSize=1;fontSize=16;" vertex="1" parent="1">
          <mxGeometry x="-349.5" y="652" width="157" height="60" as="geometry" />
        </mxCell>
        <mxCell id="WWABcLWsGfoM6cbj3lzx-10" value="Selesai" style="rounded=1;whiteSpace=wrap;html=1;fontSize=16;" vertex="1" parent="1">
          <mxGeometry x="-341" y="751" width="140" height="48" as="geometry" />
        </mxCell>
        <mxCell id="WWABcLWsGfoM6cbj3lzx-22" value="" style="endArrow=classic;html=1;rounded=0;fontSize=12;startSize=8;endSize=8;exitX=0;exitY=0.5;exitDx=0;exitDy=0;entryX=0;entryY=0.5;entryDx=0;entryDy=0;" edge="1" parent="1" source="WWABcLWsGfoM6cbj3lzx-8" target="WWABcLWsGfoM6cbj3lzx-4">
          <mxGeometry width="50" height="50" relative="1" as="geometry">
            <mxPoint x="-353" y="499" as="sourcePoint" />
            <mxPoint x="-303" y="449" as="targetPoint" />
            <Array as="points">
              <mxPoint x="-512" y="583" />
              <mxPoint x="-512" y="234" />
            </Array>
          </mxGeometry>
        </mxCell>
        <mxCell id="WWABcLWsGfoM6cbj3lzx-32" value="Text" style="edgeLabel;html=1;align=center;verticalAlign=middle;resizable=0;points=[];fontSize=16;" vertex="1" connectable="0" parent="WWABcLWsGfoM6cbj3lzx-22">
          <mxGeometry x="0.4692" y="12" relative="1" as="geometry">
            <mxPoint as="offset" />
          </mxGeometry>
        </mxCell>
        <mxCell id="WWABcLWsGfoM6cbj3lzx-25" value="" style="endArrow=classic;html=1;rounded=0;fontSize=12;startSize=8;endSize=8;" edge="1" parent="1">
          <mxGeometry width="50" height="50" relative="1" as="geometry">
            <mxPoint x="-332" y="483" as="sourcePoint" />
            <mxPoint x="-367" y="302" as="targetPoint" />
            <Array as="points">
              <mxPoint x="-487" y="483" />
              <mxPoint x="-487" y="389" />
              <mxPoint x="-487" y="302" />
            </Array>
          </mxGeometry>
        </mxCell>
        <mxCell id="WWABcLWsGfoM6cbj3lzx-29" value="False" style="text;html=1;strokeColor=none;fillColor=none;align=center;verticalAlign=middle;whiteSpace=wrap;rounded=0;fontSize=16;" vertex="1" parent="1">
          <mxGeometry x="-150" y="197" width="60" height="30" as="geometry" />
        </mxCell>
        <mxCell id="WWABcLWsGfoM6cbj3lzx-31" value="False" style="text;html=1;strokeColor=none;fillColor=none;align=center;verticalAlign=middle;whiteSpace=wrap;rounded=0;fontSize=16;" vertex="1" parent="1">
          <mxGeometry x="-157" y="264" width="60" height="30" as="geometry" />
        </mxCell>
      </root>
    </mxGraphModel>
  </diagram>
</mxfile>
